<svg height='200' width='200'  fill="#ffffff" xmlns="http://www.w3.org/2000/svg" xmlns:xlink="http://www.w3.org/1999/xlink" version="1.1" x="0px" y="0px" viewBox="0 0 100 100" enable-background="new 0 0 100 100" xml:space="preserve"><circle cx="50" cy="56.792" r="2.446"></circle><path d="M50,19.555c-20.532,0-37.237,16.704-37.237,37.237c0,8.474,2.782,16.464,8.046,23.105l0.434,0.547h57.515l0.434-0.547  c5.264-6.641,8.046-14.631,8.046-23.105C87.237,36.26,70.532,19.555,50,19.555z M55.333,56.792c0,2.941-2.392,5.333-5.333,5.333  s-5.333-2.392-5.333-5.333c0-2.941,2.392-5.334,5.333-5.334c1.522,0,2.888,0.649,3.861,1.675l21.826-7.627l0.545,1.335l-20.912,9.82  C55.321,56.706,55.333,56.747,55.333,56.792z"></path></svg>